<svg xmlns="http://www.w3.org/2000/svg" xmlns:xlink="http://www.w3.org/1999/xlink" width="500" zoomAndPan="magnify" viewBox="0 0 375 374.999991" height="500" preserveAspectRatio="xMidYMid meet" version="1.0"><defs><filter x="0%" y="0%" width="100%" height="100%" id="59b6efe214"><feColorMatrix values="0 0 0 0 1 0 0 0 0 1 0 0 0 0 1 0 0 0 1 0" color-interpolation-filters="sRGB"/></filter><g/><clipPath id="7ac27d5e59"><path d="M 82.492188 153.625 L 150.742188 153.625 L 150.742188 221.125 L 82.492188 221.125 Z M 82.492188 153.625 " clip-rule="nonzero"/></clipPath><mask id="63f773a24a"><g filter="url(#59b6efe214)"><rect x="-37.5" width="450" fill="#000000" y="-37.499999" height="449.999989" fill-opacity="0.1"/></g></mask><clipPath id="b3acf46bef"><path d="M 0.441406 45 L 63.558594 45 L 63.558594 54.960938 L 0.441406 54.960938 Z M 0.441406 45 " clip-rule="nonzero"/></clipPath><clipPath id="0d9f910e5d"><path d="M 0.441406 23 L 63.558594 23 L 63.558594 33 L 0.441406 33 Z M 0.441406 23 " clip-rule="nonzero"/></clipPath><clipPath id="f7b514467a"><path d="M 0.441406 0.480469 L 63.558594 0.480469 L 63.558594 10 L 0.441406 10 Z M 0.441406 0.480469 " clip-rule="nonzero"/></clipPath><clipPath id="21b7e30352"><rect x="0" width="64" y="0" height="55"/></clipPath><mask id="6e07c59b51"><g filter="url(#59b6efe214)"><rect x="-37.5" width="450" fill="#000000" y="-37.499999" height="449.999989" fill-opacity="0.1"/></g></mask><clipPath id="01a36820b0"><path d="M 1 0.0390625 L 12.480469 0.0390625 L 12.480469 55.71875 L 1 55.71875 Z M 1 0.0390625 " clip-rule="nonzero"/></clipPath><clipPath id="134ffef94c"><rect x="0" width="13" y="0" height="56"/></clipPath></defs><g clip-path="url(#7ac27d5e59)"><path fill="#819b69" d="M 94.226562 156.53125 L 148.984375 156.53125 C 149.78125 156.53125 150.425781 155.886719 150.425781 155.09375 C 150.425781 154.296875 149.78125 153.652344 148.984375 153.652344 L 94.003906 153.652344 C 87.769531 153.652344 82.71875 158.703125 82.71875 164.9375 C 82.71875 171.167969 87.769531 176.21875 94.003906 176.21875 C 87.769531 176.21875 82.71875 181.273438 82.71875 187.503906 C 82.71875 193.738281 87.769531 198.789062 94.003906 198.789062 C 87.632812 198.789062 82.496094 204.066406 82.726562 210.484375 C 82.941406 216.597656 88.15625 221.359375 94.273438 221.359375 L 148.984375 221.359375 C 149.78125 221.359375 150.425781 220.714844 150.425781 219.921875 C 150.425781 219.125 149.78125 218.480469 148.984375 218.480469 L 94.226562 218.480469 C 89.527344 218.480469 85.519531 214.632812 85.597656 209.933594 C 85.675781 205.367188 89.417969 201.671875 94.003906 201.671875 L 148.984375 201.671875 C 149.78125 201.671875 150.425781 201.027344 150.425781 200.234375 L 150.425781 197.355469 C 150.425781 196.558594 149.78125 195.917969 148.984375 195.917969 L 94.226562 195.917969 C 89.523438 195.917969 85.519531 192.070312 85.597656 187.371094 C 85.671875 182.800781 89.414062 179.105469 94.003906 179.105469 L 148.984375 179.105469 C 149.78125 179.105469 150.425781 178.460938 150.425781 177.667969 L 150.425781 174.789062 C 150.425781 173.992188 149.78125 173.347656 148.984375 173.347656 L 94 173.347656 C 89.414062 173.347656 85.671875 169.65625 85.59375 165.085938 C 85.519531 160.378906 89.523438 156.53125 94.226562 156.53125 Z M 94.226562 156.53125 " fill-opacity="1" fill-rule="nonzero"/></g><path fill="#faf3e4" d="M 94.003906 173.34375 C 89.367188 173.34375 85.597656 169.570312 85.597656 164.9375 C 85.597656 160.300781 89.367188 156.53125 94.003906 156.53125 L 148.46875 156.53125 L 148.46875 173.34375 Z M 148.46875 195.910156 L 148.46875 179.097656 L 94.003906 179.097656 C 89.367188 179.097656 85.597656 182.871094 85.597656 187.503906 C 85.597656 192.136719 89.367188 195.910156 94.003906 195.910156 Z M 148.46875 218.480469 L 148.46875 201.667969 L 94.003906 201.667969 C 89.367188 201.667969 85.597656 205.441406 85.597656 210.074219 C 85.597656 214.710938 89.367188 218.480469 94.003906 218.480469 Z M 148.46875 218.480469 " fill-opacity="1" fill-rule="nonzero"/><g mask="url(#63f773a24a)"><g transform="matrix(1, 0, 0, 1, 85, 156)"><g clip-path="url(#21b7e30352)"><g clip-path="url(#b3acf46bef)"><path fill="#000000" d="M 0.59375 54.074219 C 0.59375 54.296875 0.609375 54.519531 0.628906 54.738281 C 0.964844 50.410156 4.589844 46.992188 9 46.992188 L 63.46875 46.992188 L 63.46875 45.667969 L 9.003906 45.667969 C 4.367188 45.667969 0.59375 49.441406 0.59375 54.074219 Z M 0.59375 54.074219 " fill-opacity="1" fill-rule="nonzero"/></g><g clip-path="url(#0d9f910e5d)"><path fill="#000000" d="M 0.59375 31.507812 C 0.59375 31.730469 0.609375 31.949219 0.628906 32.167969 C 0.964844 27.84375 4.589844 24.421875 9 24.421875 L 63.46875 24.421875 L 63.46875 23.097656 L 9.003906 23.097656 C 4.367188 23.101562 0.59375 26.871094 0.59375 31.507812 Z M 0.59375 31.507812 " fill-opacity="1" fill-rule="nonzero"/></g><g clip-path="url(#f7b514467a)"><path fill="#000000" d="M 9.003906 0.53125 C 4.367188 0.53125 0.597656 4.304688 0.597656 8.9375 C 0.597656 9.160156 0.613281 9.382812 0.628906 9.601562 C 0.96875 5.273438 4.589844 1.855469 9.003906 1.855469 L 63.46875 1.855469 L 63.46875 0.53125 Z M 9.003906 0.53125 " fill-opacity="1" fill-rule="nonzero"/></g></g></g></g><path fill="#e6b187" d="M 148.46875 161.527344 L 92.726562 161.527344 L 92.726562 161.242188 L 148.46875 161.242188 Z M 148.46875 164.792969 L 92.726562 164.792969 L 92.726562 165.082031 L 148.46875 165.082031 Z M 148.46875 168.347656 L 92.726562 168.347656 L 92.726562 168.632812 L 148.46875 168.632812 Z M 148.46875 183.808594 L 92.726562 183.808594 L 92.726562 184.097656 L 148.46875 184.097656 Z M 148.46875 187.363281 L 92.726562 187.363281 L 92.726562 187.648438 L 148.46875 187.648438 Z M 148.46875 190.914062 L 92.726562 190.914062 L 92.726562 191.199219 L 148.46875 191.199219 Z M 148.46875 206.378906 L 92.726562 206.378906 L 92.726562 206.664062 L 148.46875 206.664062 Z M 148.46875 209.929688 L 92.726562 209.929688 L 92.726562 210.21875 L 148.46875 210.21875 Z M 148.46875 213.484375 L 92.726562 213.484375 L 92.726562 213.769531 L 148.46875 213.769531 Z M 148.46875 213.484375 " fill-opacity="1" fill-rule="nonzero"/><g mask="url(#6e07c59b51)"><g transform="matrix(1, 0, 0, 1, 132, 161)"><g clip-path="url(#134ffef94c)"><g clip-path="url(#01a36820b0)"><path fill="#000000" d="M 12.28125 55.417969 L 6.738281 50.621094 L 1.195312 55.417969 L 1.195312 0.242188 L 12.28125 0.242188 Z M 12.28125 55.417969 " fill-opacity="1" fill-rule="nonzero"/></g></g></g></g><path fill="#c08497" d="M 143.046875 215.011719 L 137.503906 210.214844 L 131.960938 215.011719 L 131.960938 161.242188 L 143.046875 161.242188 Z M 143.046875 215.011719 " fill-opacity="1" fill-rule="nonzero"/><g fill="#5b7c42" fill-opacity="1"><g transform="translate(159.995737, 183.909686)"><g><path d="M 2.5625 0 C 2.582031 -2.4375 2.597656 -4.9375 2.609375 -7.5 C 2.628906 -10.070312 2.640625 -12.722656 2.640625 -15.453125 C 2.640625 -18.179688 2.628906 -20.835938 2.609375 -23.421875 C 2.597656 -26.003906 2.582031 -28.515625 2.5625 -30.953125 L 16.671875 -30.953125 C 19.398438 -30.953125 21.722656 -30.585938 23.640625 -29.859375 C 25.566406 -29.128906 27.03125 -27.957031 28.03125 -26.34375 C 29.03125 -24.738281 29.53125 -22.582031 29.53125 -19.875 C 29.53125 -15.84375 28.578125 -12.925781 26.671875 -11.125 C 24.765625 -9.332031 21.984375 -8.4375 18.328125 -8.4375 L 10.46875 -8.4375 C 10.46875 -7.539062 10.472656 -6.546875 10.484375 -5.453125 C 10.492188 -4.359375 10.503906 -3.316406 10.515625 -2.328125 C 10.535156 -1.347656 10.5625 -0.570312 10.59375 0 Z M 10.421875 -13.390625 L 15.5 -13.390625 C 17.28125 -13.390625 18.722656 -13.828125 19.828125 -14.703125 C 20.941406 -15.578125 21.5 -17.164062 21.5 -19.46875 C 21.5 -21.738281 20.960938 -23.3125 19.890625 -24.1875 C 18.828125 -25.070312 17.332031 -25.515625 15.40625 -25.515625 L 10.46875 -25.515625 Z M 10.421875 -13.390625 "/></g></g></g><g fill="#5b7c42" fill-opacity="1"><g transform="translate(190.941933, 183.909686)"><g><path d="M 9.6875 0.5625 C 8.125 0.5625 6.742188 0.285156 5.546875 -0.265625 C 4.359375 -0.816406 3.425781 -1.597656 2.75 -2.609375 C 2.082031 -3.628906 1.75 -4.816406 1.75 -6.171875 C 1.75 -8.648438 2.785156 -10.554688 4.859375 -11.890625 C 6.941406 -13.234375 9.863281 -13.90625 13.625 -13.90625 C 14.4375 -13.90625 15.296875 -13.882812 16.203125 -13.84375 C 17.109375 -13.8125 18.101562 -13.765625 19.1875 -13.703125 L 19.1875 -14.3125 C 19.1875 -15.53125 19.050781 -16.644531 18.78125 -17.65625 C 18.507812 -18.675781 17.988281 -19.488281 17.21875 -20.09375 C 16.445312 -20.707031 15.273438 -21.015625 13.703125 -21.015625 C 12.703125 -20.847656 11.863281 -20.484375 11.1875 -19.921875 C 10.519531 -18.785156 10.0625 -17.210938 9.8125 -15.203125 L 2.265625 -16.3125 C 2.671875 -19.820312 3.984375 -22.457031 6.203125 -24.21875 C 8.421875 -25.976562 11.367188 -26.859375 15.046875 -26.859375 C 17.941406 -26.859375 20.257812 -26.375 22 -25.40625 C 23.75 -24.445312 25.007812 -23.054688 25.78125 -21.234375 C 26.550781 -19.410156 26.9375 -17.1875 26.9375 -14.5625 C 26.9375 -12.914062 26.941406 -11.507812 26.953125 -10.34375 C 26.960938 -9.175781 26.96875 -7.972656 26.96875 -6.734375 C 27 -5.328125 27.015625 -4.078125 27.015625 -2.984375 C 27.015625 -1.890625 27.015625 -0.894531 27.015625 0 L 19.109375 0 L 19.71875 -6.203125 L 19.1875 -6.203125 C 18.75 -5.046875 18.117188 -3.945312 17.296875 -2.90625 C 16.472656 -1.863281 15.4375 -1.023438 14.1875 -0.390625 C 12.945312 0.242188 11.445312 0.5625 9.6875 0.5625 Z M 12.5 -5.265625 C 13.382812 -5.265625 14.207031 -5.441406 14.96875 -5.796875 C 15.726562 -6.148438 16.394531 -6.566406 16.96875 -7.046875 C 17.550781 -7.535156 18.039062 -8.015625 18.4375 -8.484375 C 18.832031 -8.960938 19.097656 -9.328125 19.234375 -9.578125 L 19.234375 -10.828125 C 18.847656 -10.859375 18.359375 -10.878906 17.765625 -10.890625 C 17.171875 -10.898438 16.6875 -10.90625 16.3125 -10.90625 C 15.28125 -10.90625 14.222656 -10.835938 13.140625 -10.703125 C 12.054688 -10.566406 11.15625 -10.28125 10.4375 -9.84375 C 9.726562 -9.414062 9.375 -8.726562 9.375 -7.78125 C 9.375 -6.863281 9.660156 -6.210938 10.234375 -5.828125 C 10.816406 -5.453125 11.570312 -5.265625 12.5 -5.265625 Z M 12.5 -5.265625 "/></g></g></g><g fill="#5b7c42" fill-opacity="1"><g transform="translate(220.306337, 183.909686)"><g><path d="M 2.765625 5.265625 C 2.816406 2.835938 2.847656 0.015625 2.859375 -3.203125 C 2.867188 -6.421875 2.875 -9.734375 2.875 -13.140625 C 2.875 -15.953125 2.867188 -18.382812 2.859375 -20.4375 C 2.847656 -22.5 2.816406 -24.4375 2.765625 -26.25 L 10.953125 -26.25 C 10.847656 -25.4375 10.710938 -24.476562 10.546875 -23.375 C 10.378906 -22.28125 10.242188 -21.34375 10.140625 -20.5625 L 10.671875 -20.5625 C 11.148438 -21.695312 11.789062 -22.726562 12.59375 -23.65625 C 13.394531 -24.59375 14.394531 -25.34375 15.59375 -25.90625 C 16.800781 -26.476562 18.269531 -26.765625 20 -26.765625 C 22.1875 -26.765625 23.9375 -26.179688 25.25 -25.015625 C 26.5625 -23.859375 27.507812 -22.253906 28.09375 -20.203125 C 28.675781 -18.148438 28.96875 -15.769531 28.96875 -13.0625 C 28.96875 -8.757812 28.175781 -5.425781 26.59375 -3.0625 C 25.007812 -0.695312 22.648438 0.484375 19.515625 0.484375 C 17.210938 0.484375 15.300781 -0.117188 13.78125 -1.328125 C 12.269531 -2.546875 11.234375 -4.023438 10.671875 -5.765625 L 10.1875 -5.765625 C 10.34375 -4.703125 10.488281 -3.585938 10.625 -2.421875 C 10.757812 -1.265625 10.84375 0.0390625 10.875 1.5 L 10.90625 5.265625 Z M 16.0625 -5.15625 C 16.6875 -5.15625 17.320312 -5.253906 17.96875 -5.453125 C 18.613281 -5.660156 19.179688 -5.9375 19.671875 -6.28125 C 20.128906 -7.144531 20.492188 -8.140625 20.765625 -9.265625 C 21.035156 -10.390625 21.171875 -11.65625 21.171875 -13.0625 C 21.171875 -13.789062 21.097656 -14.585938 20.953125 -15.453125 C 20.804688 -16.316406 20.5625 -17.132812 20.21875 -17.90625 C 19.882812 -18.675781 19.410156 -19.3125 18.796875 -19.8125 C 18.191406 -20.3125 17.429688 -20.5625 16.515625 -20.5625 C 15.023438 -20.5625 13.828125 -20.148438 12.921875 -19.328125 C 12.015625 -18.503906 11.289062 -17.535156 10.75 -16.421875 C 10.71875 -15.910156 10.6875 -15.484375 10.65625 -15.140625 C 10.632812 -14.804688 10.617188 -14.441406 10.609375 -14.046875 C 10.597656 -13.660156 10.59375 -13.101562 10.59375 -12.375 C 10.59375 -10.96875 10.851562 -9.71875 11.375 -8.625 C 11.90625 -7.53125 12.585938 -6.675781 13.421875 -6.0625 C 14.265625 -5.457031 15.144531 -5.15625 16.0625 -5.15625 Z M 16.0625 -5.15625 "/></g></g></g><g fill="#5b7c42" fill-opacity="1"><g transform="translate(250.968616, 183.909686)"><g><path d="M 27.375 -13.21875 L 9.578125 -13.140625 L 9.578125 -12.984375 C 9.578125 -10.679688 10.03125 -8.800781 10.9375 -7.34375 C 11.84375 -5.882812 13.238281 -5.15625 15.125 -5.15625 C 15.75 -5.15625 16.367188 -5.253906 16.984375 -5.453125 C 17.609375 -5.660156 18.15625 -5.9375 18.625 -6.28125 C 19.1875 -7.613281 19.550781 -9.019531 19.71875 -10.5 L 27.265625 -10.34375 C 27.015625 -7.988281 26.429688 -6.003906 25.515625 -4.390625 C 24.597656 -2.785156 23.238281 -1.570312 21.4375 -0.75 C 19.632812 0.0703125 17.289062 0.484375 14.40625 0.484375 C 10.289062 0.484375 7.148438 -0.625 4.984375 -2.84375 C 2.828125 -5.0625 1.75 -8.453125 1.75 -13.015625 C 1.75 -17.617188 2.882812 -21.054688 5.15625 -23.328125 C 7.425781 -25.597656 10.765625 -26.734375 15.171875 -26.734375 C 19.203125 -26.734375 22.242188 -25.585938 24.296875 -23.296875 C 26.347656 -21.015625 27.375 -17.859375 27.375 -13.828125 L 27.21875 -13.828125 Z M 14.5625 -21.171875 C 13.800781 -21.171875 13.066406 -21.03125 12.359375 -20.75 C 11.660156 -20.46875 11.039062 -20.082031 10.5 -19.59375 C 10.3125 -19.050781 10.160156 -18.503906 10.046875 -17.953125 C 9.941406 -17.398438 9.851562 -16.835938 9.78125 -16.265625 L 19.515625 -16.265625 C 19.160156 -17.835938 18.578125 -19.046875 17.765625 -19.890625 C 16.953125 -20.742188 15.882812 -21.171875 14.5625 -21.171875 Z M 14.5625 -21.171875 "/></g></g></g><g fill="#5b7c42" fill-opacity="1"><g transform="translate(280.089674, 183.909686)"><g><path d="M 19.46875 -26.765625 C 21.175781 -26.765625 22.519531 -26.332031 23.5 -25.46875 C 24.488281 -24.601562 25.21875 -23.28125 25.6875 -21.5 C 26.164062 -19.71875 26.488281 -17.429688 26.65625 -14.640625 L 18.859375 -13.796875 C 18.859375 -15.984375 18.617188 -17.625 18.140625 -18.71875 C 17.671875 -19.8125 16.84375 -20.359375 15.65625 -20.359375 C 14.789062 -20.359375 13.929688 -20.019531 13.078125 -19.34375 C 12.222656 -18.664062 11.460938 -17.800781 10.796875 -16.75 L 10.828125 -16.671875 C 10.804688 -15.828125 10.78125 -15.179688 10.75 -14.734375 C 10.71875 -14.296875 10.695312 -13.929688 10.6875 -13.640625 C 10.675781 -13.359375 10.671875 -13.03125 10.671875 -12.65625 C 10.671875 -10.351562 10.675781 -8.175781 10.6875 -6.125 C 10.695312 -4.070312 10.742188 -2.03125 10.828125 0 L 2.765625 0 C 2.835938 -2.050781 2.878906 -4.171875 2.890625 -6.359375 C 2.910156 -8.554688 2.921875 -10.804688 2.921875 -13.109375 C 2.921875 -15.347656 2.910156 -17.582031 2.890625 -19.8125 C 2.878906 -22.039062 2.847656 -24.1875 2.796875 -26.25 L 10.828125 -26.25 L 10.015625 -20.640625 L 10.5 -20.609375 C 11.363281 -22.660156 12.617188 -24.195312 14.265625 -25.21875 C 15.921875 -26.25 17.65625 -26.765625 19.46875 -26.765625 Z M 19.46875 -26.765625 "/></g></g></g><g fill="#5b7c42" fill-opacity="1"><g transform="translate(159.995737, 217.659684)"><g><path d="M 2.59375 0 C 2.625 -1.570312 2.644531 -3.242188 2.65625 -5.015625 C 2.664062 -6.785156 2.675781 -8.757812 2.6875 -10.9375 C 2.707031 -13.113281 2.71875 -15.59375 2.71875 -18.375 C 2.71875 -20.320312 2.703125 -22.390625 2.671875 -24.578125 C 2.648438 -26.765625 2.613281 -28.890625 2.5625 -30.953125 L 13.390625 -30.953125 L 22.265625 -12.65625 C 22.648438 -11.675781 23.039062 -10.707031 23.4375 -9.75 C 23.84375 -8.789062 24.144531 -7.972656 24.34375 -7.296875 L 24.90625 -7.296875 C 24.800781 -8.140625 24.707031 -9.015625 24.625 -9.921875 C 24.539062 -10.828125 24.5 -11.710938 24.5 -12.578125 C 24.5 -14.003906 24.488281 -15.5625 24.46875 -17.25 C 24.457031 -18.945312 24.4375 -20.640625 24.40625 -22.328125 C 24.382812 -24.015625 24.367188 -25.609375 24.359375 -27.109375 C 24.347656 -28.609375 24.328125 -29.890625 24.296875 -30.953125 L 31.640625 -30.953125 C 31.554688 -25.890625 31.515625 -20.84375 31.515625 -15.8125 C 31.515625 -10.863281 31.554688 -5.59375 31.640625 0 L 20.84375 0 L 12.65625 -16.21875 C 11.976562 -17.875 11.429688 -19.300781 11.015625 -20.5 C 10.597656 -21.707031 10.238281 -22.8125 9.9375 -23.8125 L 9.375 -23.8125 C 9.394531 -23.5625 9.425781 -23.160156 9.46875 -22.609375 C 9.507812 -22.054688 9.554688 -21.453125 9.609375 -20.796875 C 9.660156 -20.148438 9.703125 -19.550781 9.734375 -19 C 9.765625 -18.445312 9.78125 -18.0625 9.78125 -17.84375 C 9.78125 -14.519531 9.785156 -11.382812 9.796875 -8.4375 C 9.804688 -5.488281 9.828125 -2.675781 9.859375 0 Z M 2.59375 0 "/></g></g></g><g fill="#5b7c42" fill-opacity="1"><g transform="translate(194.186619, 217.659684)"><g><path d="M 14.890625 0.484375 C 10.640625 0.484375 7.382812 -0.671875 5.125 -2.984375 C 2.875 -5.296875 1.75 -8.65625 1.75 -13.0625 C 1.75 -17.5 2.875 -20.898438 5.125 -23.265625 C 7.382812 -25.628906 10.640625 -26.8125 14.890625 -26.8125 C 19.242188 -26.8125 22.578125 -25.632812 24.890625 -23.28125 C 27.203125 -20.925781 28.359375 -17.535156 28.359375 -13.109375 C 28.359375 -8.691406 27.203125 -5.320312 24.890625 -3 C 22.578125 -0.675781 19.242188 0.484375 14.890625 0.484375 Z M 15.578125 -5.109375 C 16.222656 -5.109375 16.847656 -5.203125 17.453125 -5.390625 C 18.066406 -5.578125 18.59375 -5.863281 19.03125 -6.25 C 19.488281 -7.132812 19.84375 -8.148438 20.09375 -9.296875 C 20.351562 -10.453125 20.484375 -11.734375 20.484375 -13.140625 C 20.484375 -15.679688 19.96875 -17.660156 18.9375 -19.078125 C 17.914062 -20.503906 16.414062 -21.21875 14.4375 -21.21875 C 12.875 -21.21875 11.601562 -20.660156 10.625 -19.546875 C 10.300781 -18.660156 10.050781 -17.6875 9.875 -16.625 C 9.695312 -15.570312 9.609375 -14.410156 9.609375 -13.140625 C 9.609375 -10.597656 10.109375 -8.625 11.109375 -7.21875 C 12.109375 -5.8125 13.597656 -5.109375 15.578125 -5.109375 Z M 15.578125 -5.109375 "/></g></g></g><g fill="#5b7c42" fill-opacity="1"><g transform="translate(224.240518, 217.659684)"><g><path d="M 14.890625 0.484375 C 10.640625 0.484375 7.382812 -0.671875 5.125 -2.984375 C 2.875 -5.296875 1.75 -8.65625 1.75 -13.0625 C 1.75 -17.5 2.875 -20.898438 5.125 -23.265625 C 7.382812 -25.628906 10.640625 -26.8125 14.890625 -26.8125 C 19.242188 -26.8125 22.578125 -25.632812 24.890625 -23.28125 C 27.203125 -20.925781 28.359375 -17.535156 28.359375 -13.109375 C 28.359375 -8.691406 27.203125 -5.320312 24.890625 -3 C 22.578125 -0.675781 19.242188 0.484375 14.890625 0.484375 Z M 15.578125 -5.109375 C 16.222656 -5.109375 16.847656 -5.203125 17.453125 -5.390625 C 18.066406 -5.578125 18.59375 -5.863281 19.03125 -6.25 C 19.488281 -7.132812 19.84375 -8.148438 20.09375 -9.296875 C 20.351562 -10.453125 20.484375 -11.734375 20.484375 -13.140625 C 20.484375 -15.679688 19.96875 -17.660156 18.9375 -19.078125 C 17.914062 -20.503906 16.414062 -21.21875 14.4375 -21.21875 C 12.875 -21.21875 11.601562 -20.660156 10.625 -19.546875 C 10.300781 -18.660156 10.050781 -17.6875 9.875 -16.625 C 9.695312 -15.570312 9.609375 -14.410156 9.609375 -13.140625 C 9.609375 -10.597656 10.109375 -8.625 11.109375 -7.21875 C 12.109375 -5.8125 13.597656 -5.109375 15.578125 -5.109375 Z M 15.578125 -5.109375 "/></g></g></g><g fill="#5b7c42" fill-opacity="1"><g transform="translate(254.294418, 217.659684)"><g><path d="M 2.765625 0 C 2.785156 -2.4375 2.800781 -4.9375 2.8125 -7.5 C 2.832031 -10.070312 2.84375 -12.75 2.84375 -15.53125 C 2.84375 -18.320312 2.832031 -20.890625 2.8125 -23.234375 C 2.800781 -25.585938 2.785156 -28 2.765625 -30.46875 L 10.90625 -31.1875 C 10.882812 -29.894531 10.859375 -28.71875 10.828125 -27.65625 C 10.804688 -26.601562 10.773438 -25.519531 10.734375 -24.40625 C 10.691406 -23.300781 10.65625 -22.046875 10.625 -20.640625 C 10.601562 -19.234375 10.578125 -17.519531 10.546875 -15.5 L 12.453125 -15.5 L 19.75 -26.28125 L 27.984375 -26.28125 C 26.878906 -24.632812 25.695312 -22.929688 24.4375 -21.171875 C 23.175781 -19.410156 21.910156 -17.65625 20.640625 -15.90625 C 20.234375 -15.28125 19.648438 -14.789062 18.890625 -14.4375 C 18.140625 -14.082031 17.019531 -13.878906 15.53125 -13.828125 L 15.53125 -13.390625 C 17.050781 -13.359375 18.164062 -13.144531 18.875 -12.75 C 19.59375 -12.363281 20.171875 -11.84375 20.609375 -11.1875 C 22.015625 -9.269531 23.382812 -7.40625 24.71875 -5.59375 C 26.0625 -3.78125 27.410156 -1.914062 28.765625 0 L 20.15625 0 L 12.5 -11.5625 L 10.546875 -11.5625 C 10.578125 -10.832031 10.597656 -10.003906 10.609375 -9.078125 C 10.617188 -8.160156 10.648438 -6.984375 10.703125 -5.546875 C 10.765625 -4.117188 10.832031 -2.269531 10.90625 0 Z M 2.765625 0 "/></g></g></g></svg>